<svg width="57" height="58" viewBox="0 0 57 58" fill="none" xmlns="http://www.w3.org/2000/svg">
<path fill-rule="evenodd" clip-rule="evenodd" d="M42.75 38.3705C40.945 38.3705 39.33 39.0864 38.095 40.2079L21.1612 30.3051C21.28 29.7563 21.375 29.2074 21.375 28.6347C21.375 28.062 21.28 27.5132 21.1612 26.9644L37.905 17.157C39.1875 18.3501 40.8737 19.0898 42.75 19.0898C46.6925 19.0898 49.875 15.8923 49.875 11.9311C49.875 7.97001 46.6925 4.77246 42.75 4.77246C38.8075 4.77246 35.625 7.97001 35.625 11.9311C35.625 12.5038 35.72 13.0527 35.8388 13.6015L19.095 23.4089C17.8125 22.2158 16.1263 21.4761 14.25 21.4761C10.3075 21.4761 7.125 24.6736 7.125 28.6347C7.125 32.5959 10.3075 35.7934 14.25 35.7934C16.1263 35.7934 17.8125 35.0537 19.095 33.8606L36.005 43.7873C35.8862 44.2884 35.815 44.8134 35.815 45.3383C35.815 49.1802 38.9263 52.3061 42.75 52.3061C46.5737 52.3061 49.685 49.1802 49.685 45.3383C49.685 41.4965 46.5737 38.3705 42.75 38.3705Z" fill="#112D2E"/>
</svg>
