<svg width="24" height="29" viewBox="0 0 24 29" fill="none" xmlns="http://www.w3.org/2000/svg">
<path d="M10.7375 1.80811L10.7376 1.80813L10.7426 1.8025C11.054 1.45726 11.2521 1.2673 11.4356 1.15118C11.5845 1.057 11.7423 1 12 1C12.2579 1 12.4163 1.0571 12.5654 1.15137C12.7488 1.26726 12.9468 1.45705 13.2563 1.80132L13.2563 1.80135L13.2625 1.80811L22.1824 11.5502C22.1824 11.5502 22.1824 11.5503 22.1825 11.5503C22.2762 11.6527 22.3827 11.7622 22.4729 11.8549C22.5125 11.8957 22.549 11.9332 22.5798 11.9654C22.6966 12.0874 22.7807 12.1819 22.8457 12.2698C22.9585 12.4224 23 12.5338 23 12.6875C23 12.9209 22.9034 13.1019 22.728 13.246C22.5362 13.4037 22.2633 13.5 22 13.5H16H15L15 14.5V27.1875C15 27.5417 14.6426 28 14 28H10C9.35738 28 9 27.5417 9 27.1875V14.5L9 13.5H8H2C1.73667 13.5 1.46378 13.4037 1.27199 13.246C1.09659 13.1019 1 12.9209 1 12.6875C1 12.5338 1.04147 12.4224 1.15428 12.2698C1.21927 12.1819 1.30336 12.0874 1.42018 11.9654C1.45104 11.9332 1.48752 11.8957 1.52713 11.8549C1.61733 11.7622 1.72383 11.6527 1.81754 11.5503C1.81758 11.5503 1.81761 11.5502 1.81765 11.5502L10.7375 1.80811Z" stroke="#112D32" stroke-width="2"/>
</svg>
