<svg width="24" height="29" viewBox="0 0 24 29" fill="none" xmlns="http://www.w3.org/2000/svg">
<path d="M13.2625 27.1919L13.2624 27.1919L13.2574 27.1975C12.946 27.5427 12.7479 27.7327 12.5644 27.8488C12.4155 27.943 12.2577 28 12 28C11.7421 28 11.5837 27.9429 11.4346 27.8486C11.2512 27.7327 11.0532 27.543 10.7437 27.1987L10.7437 27.1986L10.7375 27.1919L1.81765 17.4498C1.81761 17.4498 1.81758 17.4497 1.81754 17.4497C1.72383 17.3473 1.61733 17.2378 1.52713 17.1451C1.48751 17.1043 1.45104 17.0668 1.42018 17.0346C1.30336 16.9126 1.21927 16.8181 1.15428 16.7302C1.04147 16.5776 1 16.4662 1 16.3125C1 16.0791 1.09659 15.8981 1.27199 15.754C1.46378 15.5963 1.73667 15.5 2 15.5H8H9L9 14.5V1.8125C9 1.45826 9.35739 1 10 1L14 1C14.6426 1 15 1.45826 15 1.8125V14.5L15 15.5H16H22C22.2633 15.5 22.5362 15.5963 22.728 15.754C22.9034 15.8981 23 16.0791 23 16.3125C23 16.4662 22.9585 16.5776 22.8457 16.7302C22.7807 16.8181 22.6966 16.9126 22.5798 17.0346C22.549 17.0668 22.5125 17.1043 22.4729 17.1451C22.3827 17.2378 22.2762 17.3473 22.1825 17.4497C22.1824 17.4497 22.1824 17.4498 22.1824 17.4498L13.2625 27.1919Z" stroke="#112D32" stroke-width="2"/>
</svg>
