<svg width="45" height="49" viewBox="0 0 45 49" fill="none" xmlns="http://www.w3.org/2000/svg">
<path fill-rule="evenodd" clip-rule="evenodd" d="M33.75 32.3407C32.325 32.3407 31.05 32.944 30.075 33.8893L16.7062 25.5427C16.8 25.0801 16.875 24.6176 16.875 24.1349C16.875 23.6522 16.8 23.1896 16.7062 22.727L29.925 14.4609C30.9375 15.4665 32.2687 16.0899 33.75 16.0899C36.8625 16.0899 39.375 13.3949 39.375 10.0563C39.375 6.71763 36.8625 4.02258 33.75 4.02258C30.6375 4.02258 28.125 6.71763 28.125 10.0563C28.125 10.539 28.2 11.0015 28.2938 11.4641L15.075 19.7303C14.0625 18.7247 12.7312 18.1012 11.25 18.1012C8.1375 18.1012 5.625 20.7962 5.625 24.1349C5.625 27.4735 8.1375 30.1685 11.25 30.1685C12.7312 30.1685 14.0625 29.5451 15.075 28.5394L28.425 36.9062C28.3312 37.3285 28.275 37.771 28.275 38.2134C28.275 41.4515 30.7313 44.0862 33.75 44.0862C36.7687 44.0862 39.225 41.4515 39.225 38.2134C39.225 34.9754 36.7687 32.3407 33.75 32.3407Z" fill="#112D2E"/>
</svg>
