<svg width="58" height="49" viewBox="0 0 58 49" fill="none" xmlns="http://www.w3.org/2000/svg">
<path d="M14.5 0C10.5125 0 6.96 1.65249 4.2775 4.239C1.6675 6.82551 0 10.346 0 14.3695C0 18.3211 1.6675 21.8416 4.2775 24.5L29 49L53.7225 24.5C56.3325 21.9135 58 18.393 58 14.3695C58 10.4179 56.3325 6.89736 53.7225 4.239C51.1125 1.65249 47.56 0 43.5 0C39.5125 0 35.96 1.65249 33.2775 4.239C30.6675 6.82551 29 10.346 29 14.3695C29 10.4179 27.3325 6.89736 24.7225 4.239C22.1125 1.65249 18.56 0 14.5 0Z" fill="#112D32"/>
</svg>
